<svg width="191" height="177" viewBox="0 0 191 177" fill="none" xmlns="http://www.w3.org/2000/svg"><path d="M148.194 113.036c11.307-10.613 20.183-27.957 18.506-45.07-1.677-17.115-13.818-34.043-29.233-37.39-15.415-3.348-34.106 6.885-52.364 10.495-18.394 3.568-36.445.557-44.338 7.964-7.85 7.272-5.541 24.961-6.055 42.184-.424 17.178-3.581 33.844 1.878 48.91 5.55 15.021 19.715 28.443 33.294 26.664 13.58-1.778 26.573-18.758 39.941-29.077 13.322-10.408 27.018-14.156 38.371-24.68z" fill="url(#a)"/><defs><linearGradient id="a" x1="122.342" y1="141.382" x2="67.754" y2="34.654" gradientUnits="userSpaceOnUse"><stop stop-color="#FFCB35"/><stop offset="1" stop-color="#F06"/></linearGradient></defs></svg>