<svg width="287" height="339" viewBox="0 0 287 339" fill="none" xmlns="http://www.w3.org/2000/svg"><path opacity=".6" d="M267.241 168.663c10.127 25.139 11.444 59.171-3.807 85.092-15.252 25.921-46.965 43.867-73.88 37.863-26.915-6.005-49.032-35.96-75.338-55.091-26.552-19.161-57.4-27.635-64.47-45.18-7.1-17.299 9.576-43.67 21.434-71.372 11.965-27.565 19.22-56.324 38.965-76.22 19.853-19.759 52.198-30.655 72.43-17.864 20.231 12.79 28.349 49.266 41.96 75.45 13.474 26.292 32.441 42.291 42.706 67.322z" fill="url(#a)"/><defs><linearGradient id="a" x1="247.09" y1="104.715" x2="81.975" y2="233.974" gradientUnits="userSpaceOnUse"><stop stop-color="#FFCB35"/><stop offset="1" stop-color="#F06"/></linearGradient></defs></svg>