<svg width="287" height="339" viewBox="0 0 287 339" fill="none" xmlns="http://www.w3.org/2000/svg">
<path opacity="0.6" d="M267.241 168.663C277.368 193.802 278.685 227.834 263.434 253.755C248.182 279.676 216.469 297.622 189.554 291.618C162.639 285.613 140.522 255.658 114.216 236.527C87.6643 217.366 56.8166 208.892 49.7461 191.347C42.6455 174.048 59.3221 147.677 71.1797 119.975C83.145 92.41 90.3991 63.6512 110.145 43.755C129.998 23.9964 162.343 13.1004 182.575 25.8906C202.806 38.6808 210.924 75.1572 224.535 101.341C238.009 127.633 256.976 143.632 267.241 168.663Z" fill="url(#paint0_linear)"/>
<defs>
<linearGradient id="paint0_linear" x1="247.09" y1="104.715" x2="81.9748" y2="233.974" gradientUnits="userSpaceOnUse">
<stop stop-color="#FFCB35"/>
<stop offset="1" stop-color="#FF0066"/>
</linearGradient>
</defs>
</svg>
