<svg width="130" height="90" viewBox="0 0 130 90" fill="none" xmlns="http://www.w3.org/2000/svg"><g clip-path="url(#a)"><path d="M42.085 65.74a4.092 4.092 0 0 0 .374-5.786l-.226-.26a4.09 4.09 0 0 0-2.823-1.373h-.274a4.094 4.094 0 0 0-2.71 1.018l-5.515 4.825-5.022 4.393a4.098 4.098 0 0 0-.373 5.784l.23.263a4.13 4.13 0 0 0 5.81.373l3.86-3.376 6.669-5.861z" fill="url(#b)"/><path d="M56.875 75.993a4.108 4.108 0 0 0-2.712 1.017l-5.439 4.757a4.092 4.092 0 0 0-.379 5.79 4.127 4.127 0 0 0 5.81.377l5.438-4.757a4.09 4.09 0 0 0 .382-5.786 4.121 4.121 0 0 0-3.1-1.398z" fill="url(#c)"/><path d="M11.635 3.239L.577 51.31l8.84 4.95 22.875-37.08L11.635 3.24z" fill="url(#d)"/><path d="M29.292 60.157a4.094 4.094 0 0 0 .378-5.79l-.07-.08a4.09 4.09 0 0 0-2.825-1.386H26.5a4.094 4.094 0 0 0-2.71 1.02l-6.605 5.762a4.094 4.094 0 0 0-.378 5.79 4.146 4.146 0 0 0 5.828.503l.054-.046.5-.438 5.027-4.397 1.075-.938z" fill="url(#e)"/><path d="M52.3 71.642a4.064 4.064 0 0 0-1.015-2.974l-.059-.067a4.089 4.089 0 0 0-2.818-1.374h-.274a4.093 4.093 0 0 0-2.71 1.02l-.647.564-6.673 5.838-1.773 1.542a4.155 4.155 0 0 0-.294 5.883 4.185 4.185 0 0 0 2.8 1.36 4.083 4.083 0 0 0 2.984-1.011l9.086-7.947a4.071 4.071 0 0 0 1.392-2.834z" fill="url(#f)"/><path d="M106.738 58.532L74.684 32.504C62.41 39 53.717 35.657 49.562 33.013a4.658 4.658 0 0 1 .393-8.047L60.64 19.31a15.995 15.995 0 0 0-.788-.1 207.431 207.431 0 0 1-29.137 2.5l-18.676 30.27 4.163 3.162 4.895-4.283c3.398-2.973 8.572-2.638 11.555.749h.001l.07.081a8.079 8.079 0 0 1 1.884 3.95 8.05 8.05 0 0 1 5.058-1.374 8.142 8.142 0 0 1 5.621 2.76l.23.262a8.085 8.085 0 0 1 2.016 5.908v.012c.374-.038.751-.05 1.128-.037a8.145 8.145 0 0 1 5.622 2.76l-1.472 1.405 1.53-1.339a8.09 8.09 0 0 1 2.02 5.912c0 .027-.012.053-.014.08 4.484-.318 8.378 3.047 8.697 7.516.027.373.028.748.003 1.12a8.062 8.062 0 0 1-1.355 3.926l8.782 5.05a4.077 4.077 0 0 0 5.503-1.452 3.968 3.968 0 0 0-1.196-5.318l-13.984-9.656c-.012 0-.018-.022-.028-.03l-.941-.65a2.025 2.025 0 0 1-.466-2.832 2.041 2.041 0 0 1 2.784-.504l19.724 13.615a4.017 4.017 0 0 0 5.578-1.007l.002-.003a4 4 0 0 0-.984-5.53L68.835 62.363c-.012 0-.016-.022-.028-.03a2.027 2.027 0 0 1-.478-2.832 2.043 2.043 0 0 1 2.842-.477L93.177 74.58a4.276 4.276 0 0 0 5.945-1.021 4.242 4.242 0 0 0-.868-5.81l-23.677-17a2.025 2.025 0 0 1-.564-2.815 2.04 2.04 0 0 1 2.928-.489l1.619 1.15h.021l21.944 15.755c.041.03.071.067.11.097l.363.259c.069.047.135.099.197.155l.394.269a4.251 4.251 0 0 0 5.784-.797 4.147 4.147 0 0 0 .731-3.761 4.06 4.06 0 0 0-1.366-2.04z" fill="url(#g)"/><path d="M118.91.054L98.257 15.996l19.105 30.966c.126.065.244.143.353.234.328.336.525.776.559 1.244l2.862 4.638 8.832-4.952L118.91.054z" fill="url(#h)"/><path d="M98.153 21.493a18.212 18.212 0 0 1-12.586.456L74.724 18.44a5.927 5.927 0 0 0-4.519.393l-3.675 1.945c-.04.02-.073.043-.114.06l-14.564 7.71a.616.616 0 0 0-.35.535.557.557 0 0 0 .262.516c4.284 2.724 11.62 4.71 22.125-1.296a2.046 2.046 0 0 1 2.3.187l33.106 26.89c.461.377.877.806 1.241 1.277l8.186-8.163-17.445-28.275-3.124 1.273z" fill="url(#i)"/></g><defs><linearGradient id="b" x1="24.458" y1="58.244" x2="38.284" y2="75.942" gradientUnits="userSpaceOnUse"><stop stop-color="#FECA52"/><stop offset=".516" stop-color="#FFCE5F"/><stop offset="1" stop-color="#FF644E"/></linearGradient><linearGradient id="c" x1="47.296" y1="75.937" x2="57.476" y2="88.736" gradientUnits="userSpaceOnUse"><stop stop-color="#FECA52"/><stop offset=".516" stop-color="#FFCE5F"/><stop offset="1" stop-color="#FF644E"/></linearGradient><linearGradient id="d" x1="33" y1="8" x2="-1" y2="59.5" gradientUnits="userSpaceOnUse"><stop stop-color="#FFCB35"/><stop offset=".37" stop-color="#FFAA3D"/><stop offset=".782" stop-color="#FF694D"/><stop offset="1" stop-color="#F06"/></linearGradient><linearGradient id="e" x1="15.756" y1="52.84" x2="26.77" y2="66.775" gradientUnits="userSpaceOnUse"><stop stop-color="#FECA52"/><stop offset=".516" stop-color="#FFCE5F"/><stop offset="1" stop-color="#FF644E"/></linearGradient><linearGradient id="f" x1="34.922" y1="67.157" x2="47.618" y2="83.347" gradientUnits="userSpaceOnUse"><stop stop-color="#FECA52"/><stop offset=".516" stop-color="#FFCE5F"/><stop offset="1" stop-color="#FF644E"/></linearGradient><linearGradient id="g" x1="99" y1="71.5" x2="-16" y2="18" gradientUnits="userSpaceOnUse"><stop stop-color="#FFCB35"/><stop offset=".495" stop-color="#FFB33B"/><stop offset=".781" stop-color="#FF8945"/><stop offset="1" stop-color="#F06"/></linearGradient><linearGradient id="h" x1="102" y1="4.5" x2="130" y2="60" gradientUnits="userSpaceOnUse"><stop stop-color="#FFCB35"/><stop offset=".582" stop-color="#FFAA3D"/><stop offset=".841" stop-color="#FF694D"/><stop offset="1" stop-color="#F06"/></linearGradient><linearGradient id="i" x1="49" y1="38" x2="116.976" y2="56.068" gradientUnits="userSpaceOnUse"><stop stop-color="#FECA52"/><stop offset=".516" stop-color="#FFCE5F"/><stop offset="1" stop-color="#FF644E"/></linearGradient><clipPath id="a"><path fill="#fff" d="M0 0h130v90H0z"/></clipPath></defs></svg>