<svg width="120" height="119" viewBox="0 0 120 119" fill="none" xmlns="http://www.w3.org/2000/svg"><path d="M106.484 16.734H43.266a7.438 7.438 0 0 0-7.438 7.438v48.344a7.438 7.438 0 0 0 7.438 7.437h63.218a7.438 7.438 0 0 0 7.438-7.437V24.172a7.438 7.438 0 0 0-7.438-7.438z" fill="#FF6C4D"/><path d="M35.828 83.672a7.438 7.438 0 0 0 7.438 7.437h63.218a7.435 7.435 0 0 0 7.438-7.437V35.328a7.437 7.437 0 0 0-7.438-7.437H69.297V13.016a7.438 7.438 0 0 0-7.438-7.438H43.266a7.438 7.438 0 0 0-7.438 7.438v70.656z" fill="#FFCB36"/><path d="M69.297 50.203v55.781a7.435 7.435 0 0 1-7.438 7.438H13.516a7.437 7.437 0 0 1-7.438-7.438V39.047a7.437 7.437 0 0 1 7.438-7.438h37.187l18.594 18.594z" fill="#FEFABF"/><path d="M69.297 50.203H58.14a7.438 7.438 0 0 1-7.438-7.437V31.609l18.594 18.594zM58.14 63.219H32.11a1.86 1.86 0 1 1 0-3.719h26.03a1.86 1.86 0 1 1 0 3.719zM43.266 74.375H17.234a1.86 1.86 0 1 1 0-3.719h26.032a1.86 1.86 0 1 1 0 3.719zM58.14 96.688h-7.437a1.86 1.86 0 0 1 0-3.72h7.438a1.86 1.86 0 1 1 0 3.72zM24.672 63.219h-7.438a1.86 1.86 0 1 1 0-3.719h7.438a1.86 1.86 0 0 1 0 3.719zM35.828 85.531H17.234a1.86 1.86 0 1 1 0-3.719h18.594a1.86 1.86 0 1 1 0 3.72zM28.39 52.063H17.235a1.86 1.86 0 1 1 0-3.72h11.157a1.86 1.86 0 1 1 0 3.72zM50.703 74.375a1.86 1.86 0 1 0 0-3.719 1.86 1.86 0 0 0 0 3.719zM54.422 85.531H43.266a1.86 1.86 0 1 1 0-3.719h11.156a1.86 1.86 0 0 1 0 3.72zM43.266 96.688H17.234a1.86 1.86 0 1 1 0-3.72h26.032a1.86 1.86 0 1 1 0 3.72zM99.047 65.078L86.03 53.922V59.5c-11.156 0-24.172 8.52-24.172 16.734 0 0 13.016-5.578 24.172-5.578v5.578l13.016-11.156z" fill="#FF6C4D"/></svg>