<svg width="120" height="119" viewBox="0 0 120 119" fill="none" xmlns="http://www.w3.org/2000/svg"><g clip-path="url(#a)"><path d="M60 119c33.137 0 60-26.64 60-59.5S93.137 0 60 0 0 26.64 0 59.5 26.863 119 60 119z" fill="url(#b)"/><path d="M66.987.414l-2.478 7.654a5.785 5.785 0 0 1-3.993 3.793l-6.214 1.69c-.5.135-1.016.204-1.535.204h-9.298c-.97 0-1.79.713-1.919 1.666l-1.066 7.931-5.939.309a1.927 1.927 0 0 0-1.833 1.84l-.205 5.118a1.928 1.928 0 0 0 2.094 1.99l3.957-.327a3.49 3.49 0 0 0 2.541-1.43l3.66-5.06 7.826-.278c1.674-.06 2.856 1.611 2.249 3.159-1.364 3.473-1.366 3.77-1.366 4.076 0 1.061.866 1.92 1.935 1.92.957 0 1.753-.69 1.907-1.594.133-.442.724-1.976 1.498-3.923.323-.813 1.437-.932 1.922-.203l.5.751a3.886 3.886 0 0 0 4.265 1.583l3.456-.951a3.123 3.123 0 0 0 2.094-1.898l.663-1.744a3.862 3.862 0 0 1 2.84-2.406l2.233-.457c1.52-.31 3.131.6 3.396 2.117a2.684 2.684 0 0 1-2.353 3.13l-5.385.144a2.048 2.048 0 0 0-2.001 1.99l-.013.512c-.01.41.22.79.588.977l3.097 1.567a2.171 2.171 0 0 1 .819 3.168c-.41.598-1.09.955-1.818.955H56.776a3.43 3.43 0 0 1-1.249-.235l-13.706-5.355a2.858 2.858 0 0 0-2.969.552l-12.98 11.898a3.819 3.819 0 0 0-1.132 3.736l2.64 10.633a3.863 3.863 0 0 0 3.55 2.916l14.625.78c2.877.153 5.206 2.376 5.47 5.221l1.11 11.944a7.45 7.45 0 0 0 .71 2.564c1.233 2.55 4.107 8.344 5.704 10.347 2.056 2.58 7.123 2.682 8.83 1.14L79.27 84.88a5.745 5.745 0 0 0 1.837-3.427l1.393-9.476 9.442-10.32c.92-1.005.507-2.547-.663-3.044l-.17.112a5.15 5.15 0 0 1-2.85.86c-1.75 0-3.374-.88-4.317-2.369l-7.209-11.351a1.913 1.913 0 0 1 .607-2.649c.911-.56 2.1-.292 2.67.602l7.21 11.353c.247.394.686.608 1.154.57.206-.019.409-.09.583-.204L98.7 50.24a1.842 1.842 0 0 0 .563-2.776 1.875 1.875 0 0 0-1.673-.686l-2.047.233c-.55.063-1.1-.11-1.513-.476l-6.13-5.437a1.91 1.91 0 0 1-.15-2.71 1.946 1.946 0 0 1 2.733-.15l5.481 4.862 3.33-.38a1.93 1.93 0 0 1 1.785.773l.641.87 3.246-.386a3.88 3.88 0 0 1 3.866 1.985l6.555 12.02a3.864 3.864 0 0 0 2.225 1.83l2.358.82c.007-.377.029-.752.029-1.131C120 28.984 96.83 3.849 66.987.413zM92.05 33.26a1.93 1.93 0 0 1-1.081.33 1.934 1.934 0 0 1-1.605-.846l-4.032-5.917a1.906 1.906 0 0 1 .52-2.664 1.942 1.942 0 0 1 2.686.516l4.032 5.917c.599.878.366 2.071-.52 2.664zM86.127 90.93c-.438 0-.88-.149-1.243-.45a1.908 1.908 0 0 1-.237-2.705l5.08-5.998a1.948 1.948 0 0 1 2.728-.234c.819.682.925 1.893.237 2.705l-5.081 5.998a1.939 1.939 0 0 1-1.484.684zM43.494 2.299l-1.722 5.088a1.917 1.917 0 0 0 1.219 2.431 1.936 1.936 0 0 0 2.452-1.21l2.506-7.406c-1.508.305-2.99.682-4.455 1.097zM10.049 92.46l1.674-15.087a3.82 3.82 0 0 0-1.16-3.19L.236 64.604a58.826 58.826 0 0 0 9.814 27.856z" fill="#FEFABF"/><path d="M60 0c-2.17 0-4.312.12-6.423.344l-.202 4.503a2.873 2.873 0 0 0 1.836 3.642c.304.101.614.148.918.148 1.215 0 2.35-.763 2.754-1.968L61.115.028C60.743.02 60.375 0 60 0z" fill="#FEFABF"/></g><defs><linearGradient id="b" x1="120" x2="0" y2="119" gradientUnits="userSpaceOnUse"><stop stop-color="#FFCB35"/><stop offset=".417" stop-color="#FF9941"/><stop offset=".745" stop-color="#FF6D4C"/><stop offset=".865" stop-color="#FF6B4C"/><stop offset="1" stop-color="#F06"/></linearGradient><clipPath id="a"><path fill="#fff" d="M0 0h120v119H0z"/></clipPath></defs></svg>