<svg width="118" height="117" viewBox="0 0 118 117" fill="none" xmlns="http://www.w3.org/2000/svg"><path d="M59 117c32.309 0 58.5-26.191 58.5-58.5S91.309 0 59 0 .5 26.191.5 58.5 26.691 117 59 117z" fill="url(#a)" fill-opacity=".4"/><path d="M59 48.438c-5.616 0-10.186 4.57-10.186 10.186S53.384 68.81 59 68.81s10.186-4.57 10.186-10.186S64.616 48.438 59 48.438zm5.515 9.59l-6.112 6.111c-.398.398-.919.597-1.44.597a2.03 2.03 0 0 1-1.44-.597l-2.038-2.037a2.037 2.037 0 1 1 2.88-2.88l.598.596 4.67-4.671a2.037 2.037 0 1 1 2.882 2.88zm18.931-22.95c-11.276 0-22.962-10.453-23.08-10.559-.775-.7-1.957-.7-2.733 0-.117.106-11.803 10.558-23.08 10.558a2.036 2.036 0 0 0-2.037 2.038v24.26c0 19.201 13.765 26.918 25.758 31.498.233.09.48.133.726.133.247 0 .493-.044.726-.133 11.993-4.58 25.758-12.297 25.758-31.497V37.115a2.036 2.036 0 0 0-2.038-2.038zM59 72.884c-7.862 0-14.26-6.398-14.26-14.26 0-7.863 6.398-14.261 14.26-14.261s14.26 6.398 14.26 14.26c0 7.863-6.398 14.26-14.26 14.26z" fill="url(#b)"/><defs><linearGradient id="a" x1="59" x2="68.783" y2="116.176" gradientUnits="userSpaceOnUse"><stop stop-color="#FECA52"/><stop offset=".516" stop-color="#FFCE5F"/><stop offset="1" stop-color="#FF644E"/></linearGradient><linearGradient id="b" x1="33" y1="24" x2="85" y2="93" gradientUnits="userSpaceOnUse"><stop stop-color="#FFCB35"/><stop offset=".302" stop-color="#FFBF38"/><stop offset=".698" stop-color="#FF9F40"/><stop offset="1" stop-color="#FF764A"/><stop offset="1" stop-color="#F06"/></linearGradient></defs></svg>