<svg width="160" height="160" viewBox="0 0 160 160" fill="none" xmlns="http://www.w3.org/2000/svg"><g clip-path="url(#a)"><path d="M10 26.667h31.667a5 5 0 0 1 5 5V101a4 4 0 0 1-4 4H29.833a4 4 0 0 1-4-4V50.03a2 2 0 0 0-2-2H10V26.667z" fill="#FFAB3D"/><path d="M10 20h29.833c6.075 0 11 4.925 11 11v70a4 4 0 0 1-4 4H33.167a4 4 0 0 1-4-4V45.182a2 2 0 0 0-2-2H10V20z" fill="url(#b)"/><path d="M78.132 70H68.89c-15.035 0-27.223 10.447-27.223 23.333 0 12.887 12.188 23.334 27.223 23.334h44.746a6.364 6.364 0 1 0 0-12.728H68.89c-6.834 0-12.374-4.748-12.374-10.606 0-5.857 5.54-10.606 12.374-10.606h9.242V70z" fill="#FFAB3D"/><path d="M81.96 48.333H65.759C40.487 48.333 20 68.48 20 93.333s20.486 45 45.758 45h73.636c6.778 0 12.273-5.494 12.273-12.272 0-6.779-5.495-12.273-12.273-12.273H65.758c-11.487 0-20.8-9.158-20.8-20.455 0-11.296 9.313-20.454 20.8-20.454H81.96V48.333z" fill="url(#c)"/></g><defs><linearGradient id="b" x1="9.919" y1="19.632" x2="69.012" y2="53.461" gradientUnits="userSpaceOnUse"><stop stop-color="#FECA52"/><stop offset=".516" stop-color="#FFCE5F"/><stop offset="1" stop-color="#FF644E"/></linearGradient><linearGradient id="c" x1="19.739" y1="47.944" x2="82.37" y2="157.133" gradientUnits="userSpaceOnUse"><stop stop-color="#FECA52"/><stop offset=".516" stop-color="#FFCE5F"/><stop offset="1" stop-color="#FF644E"/></linearGradient><clipPath id="a"><path fill="#fff" transform="translate(5 20)" d="M0 0h150v120H0z"/></clipPath></defs></svg>