<svg width="120" height="120" viewBox="0 0 120 120" fill="none" xmlns="http://www.w3.org/2000/svg"><g clip-path="url(#a)"><path d="M100.386 10.01H19.614c-7.127 0-12.905 5.779-12.905 12.906v75.179c0 7.127 5.778 12.905 12.905 12.905h80.772c7.127 0 12.905-5.778 12.905-12.905v-75.18c0-7.127-5.778-12.904-12.905-12.904z" fill="#FEFABF"/><path d="M113.291 34.258V18.62c0-7.127-5.778-12.904-12.905-12.904H19.614c-7.127 0-12.905 5.777-12.905 12.904v15.637H113.29z" fill="#FF6C4D"/><path d="M113.291 37.175v-14.26c0-7.126-5.778-12.904-12.905-12.904H19.614c-7.127 0-12.905 5.778-12.905 12.905v14.259H113.29z" fill="#FFC644"/><path d="M27.847 16.942a4.504 4.504 0 1 0 0 9.008 4.504 4.504 0 0 0 0-9.008z" fill="#FFB23E"/><path d="M27.847 0a2.41 2.41 0 0 0-2.41 2.41v18.773a2.41 2.41 0 1 0 4.82 0V2.41A2.41 2.41 0 0 0 27.846 0z" fill="#FFF4BD"/><path d="M49.282 16.942a4.504 4.504 0 1 0 0 9.008 4.504 4.504 0 0 0 0-9.008z" fill="#FFB23E"/><path d="M49.282 0a2.41 2.41 0 0 0-2.41 2.41v18.773a2.41 2.41 0 1 0 4.82 0V2.41A2.41 2.41 0 0 0 49.282 0z" fill="#FFF4BD"/><path d="M70.718 16.942a4.504 4.504 0 1 0 0 9.008 4.504 4.504 0 0 0 0-9.008z" fill="#FFB23E"/><path d="M70.718 0a2.41 2.41 0 0 0-2.41 2.41v18.773a2.41 2.41 0 1 0 4.82 0V2.41A2.41 2.41 0 0 0 70.717 0z" fill="#FFF4BD"/><path d="M92.153 16.942a4.504 4.504 0 1 0 0 9.008 4.504 4.504 0 0 0 0-9.008z" fill="#FFB23E"/><path d="M92.153 0a2.41 2.41 0 0 0-2.41 2.41v18.773a2.41 2.41 0 1 0 4.82 0V2.41A2.41 2.41 0 0 0 92.153 0z" fill="#FFF4BD"/><path d="M46.035 55.005h9.741v9.741h-9.74v-9.741zM64.224 55.005h9.74v9.741h-9.74v-9.741zM82.412 55.005h9.741v9.741h-9.74v-9.741zM27.847 70.275h9.74v9.741h-9.74v-9.74zM46.035 70.275h9.741v9.741h-9.74v-9.74zM64.224 70.275h9.74v9.741h-9.74v-9.74zM82.412 70.275h9.741v9.741h-9.74v-9.74zM27.847 85.546h9.74v9.741h-9.74v-9.74zM46.035 85.546h9.741v9.741h-9.74v-9.74zM64.224 85.546h9.74v9.741h-9.74v-9.74z" fill="#FF6C4D"/></g><defs><clipPath id="a"><path fill="#fff" d="M0 0h120v120H0z"/></clipPath></defs></svg>