<svg width="10" height="12" viewBox="0 0 10 12" fill="none" xmlns="http://www.w3.org/2000/svg"><path d="M5 0C2.27 0 .058.807.058 1.802v1.479C.058 4.277 2.27 5.083 5 5.083c2.73 0 4.943-.806 4.943-1.802V1.802C9.943.807 7.73 0 5 0z" fill="url(#a)"/><path d="M5.001 5.945c-2.606 0-4.754-.736-4.942-1.67-.01.045 0 2.443 0 2.443C.059 7.714 2.272 8.52 5 8.52c2.73 0 4.943-.806 4.943-1.802 0 0 .005-2.398-.004-2.442-.188.933-2.333 1.669-4.939 1.669z" fill="url(#b)"/><path d="M9.939 7.755c-.188.933-2.332 1.67-4.938 1.67S.246 8.687.058 7.754v2.443C.059 11.193 2.273 12 5.002 12c2.73 0 4.943-.807 4.943-1.802l-.005-2.443z" fill="url(#c)"/><defs><linearGradient id="a" x1=".038" y1="-.022" x2="3.02" y2="6.887" gradientUnits="userSpaceOnUse"><stop stop-color="#FECA52"/><stop offset=".516" stop-color="#FFCE5F"/><stop offset="1" stop-color="#FF644E"/></linearGradient><linearGradient id="b" x1=".035" y1="4.258" x2="2.217" y2="10.316" gradientUnits="userSpaceOnUse"><stop stop-color="#FECA52"/><stop offset=".516" stop-color="#FFCE5F"/><stop offset="1" stop-color="#FF644E"/></linearGradient><linearGradient id="c" x1=".039" y1="7.737" x2="2.221" y2="13.794" gradientUnits="userSpaceOnUse"><stop stop-color="#FECA52"/><stop offset=".516" stop-color="#FFCE5F"/><stop offset="1" stop-color="#FF644E"/></linearGradient></defs></svg>