<svg width="12" height="12" viewBox="0 0 12 12" fill="none" xmlns="http://www.w3.org/2000/svg"><path d="M10.868 3.812l-.497-3.48a.352.352 0 0 0-.597-.199L9.05.857A5.937 5.937 0 0 0 5.975 0 5.941 5.941 0 0 0 0 5.824a.352.352 0 0 0 .302.358l1.405.2c.21.03.404-.134.401-.353A3.869 3.869 0 0 1 7.49 2.42l-.698.697a.352.352 0 0 0 .2.597l3.48.497c.229.035.43-.165.397-.398z" fill="url(#a)"/><path d="M11.698 5.845l-1.404-.2a.376.376 0 0 0-.401.378 3.872 3.872 0 0 1-5.374 3.561l.675-.675a.352.352 0 0 0-.199-.597l-3.48-.497a.352.352 0 0 0-.398.398l.497 3.48c.041.286.392.403.597.199l.742-.742c.926.557 1.983.85 3.073.85A5.947 5.947 0 0 0 12 6.204a.352.352 0 0 0-.302-.359z" fill="url(#b)"/><defs><linearGradient id="a" x1="-.021" y1="-.028" x2="4.062" y2="8.256" gradientUnits="userSpaceOnUse"><stop stop-color="#FECA52"/><stop offset=".516" stop-color="#FFCE5F"/><stop offset="1" stop-color="#FF644E"/></linearGradient><linearGradient id="b" x1="1.092" y1="5.615" x2="5.142" y2="13.88" gradientUnits="userSpaceOnUse"><stop stop-color="#FECA52"/><stop offset=".516" stop-color="#FFCE5F"/><stop offset="1" stop-color="#FF644E"/></linearGradient></defs></svg>