<svg width="13" height="12" viewBox="0 0 13 12" fill="none" xmlns="http://www.w3.org/2000/svg"><path d="M12 3.5H1a.48.48 0 0 0-.352.148A.48.48 0 0 0 .5 4v7.5c0 .135.05.252.148.351A.48.48 0 0 0 1 12h11a.48.48 0 0 0 .351-.149.48.48 0 0 0 .149-.351V4a.48.48 0 0 0-.149-.352A.48.48 0 0 0 12 3.5zM7.85 5.852A.48.48 0 0 1 7.5 6h-2a.48.48 0 0 1-.352-.148A.48.48 0 0 1 5 5.5a.48.48 0 0 1 .148-.352A.48.48 0 0 1 5.5 5h2a.48.48 0 0 1 .352.148A.48.48 0 0 1 8 5.5a.48.48 0 0 1-.149.352z" fill="url(#a)"/><path d="M12.851.148A.48.48 0 0 0 12.5 0H.5a.48.48 0 0 0-.352.148A.48.48 0 0 0 0 .5v2c0 .135.05.252.148.351A.48.48 0 0 0 .5 3h12c.135 0 .252-.05.351-.149A.48.48 0 0 0 13 2.5v-2a.48.48 0 0 0-.149-.352z" fill="url(#b)"/><defs><linearGradient id="a" x1=".476" y1="3.463" x2="6.496" y2="13.59" gradientUnits="userSpaceOnUse"><stop stop-color="#FECA52"/><stop offset=".516" stop-color="#FFCE5F"/><stop offset="1" stop-color="#FF644E"/></linearGradient><linearGradient id="b" x1="-.026" y1="-.013" x2=".877" y2="4.649" gradientUnits="userSpaceOnUse"><stop stop-color="#FECA52"/><stop offset=".516" stop-color="#FFCE5F"/><stop offset="1" stop-color="#FF644E"/></linearGradient></defs></svg>