<svg width="14" height="14" viewBox="0 0 14 14" fill="none" xmlns="http://www.w3.org/2000/svg">
<path d="M5.86179 1.76422C5.86179 1.76422 4.09757 0 2.04879 0C0.853673 0 0.398373 0.796742 0.398373 1.59348C0.398373 2.39023 0.882111 3.18697 1.76422 3.18697H5.86179V1.76422Z" fill="#FBE77B"/>
<path d="M5.86179 1.76422C5.86179 1.76422 4.09757 0 2.04879 0C0.853673 0 0.398373 0.796742 0.398373 1.59348C0.398373 2.39023 0.882111 3.18697 1.76422 3.18697H5.86179V1.76422Z" fill="#FFC644"/>
<path d="M8.13822 1.76422C8.13822 1.76422 9.90244 0 11.9512 0C13.1463 0 13.6016 0.796742 13.6016 1.59348C13.6016 2.39023 13.1179 3.18697 12.2358 3.18697H8.13822V1.76422Z" fill="#FFC644"/>
<path d="M13.4531 5.46343H0.546875C0.244836 5.46343 0 5.2186 0 4.91656V3.73389C0 3.43185 0.244836 3.18701 0.546875 3.18701H13.4531C13.7552 3.18701 14 3.43185 14 3.73389V4.91656C14 5.2186 13.7552 5.46343 13.4531 5.46343Z" fill="#FF6D4C"/>
<path d="M5.29268 3.18701H8.70731V5.46343H5.29268V3.18701Z" fill="#FFC644"/>
<path d="M12.7133 14H1.28671C0.984676 14 0.73984 13.7551 0.73984 13.4531V5.46338H13.2602V13.4531C13.2602 13.7551 13.0153 14 12.7133 14Z" fill="#FF6D4C"/>
<path d="M0.73984 5.46338H13.2602V6.14632H0.73984V5.46338Z" fill="#FC3F3F"/>
<path d="M5.86178 5.46338H8.13821V14H5.86178V5.46338Z" fill="#FFC644"/>
<path d="M5.86178 5.46338H8.13821V6.14632H5.86178V5.46338Z" fill="#FCDD2E"/>
<path d="M8.93495 2.61789C8.81647 2.61789 8.71497 2.54543 8.67215 2.44245C8.74557 2.41549 8.82473 2.3891 8.9069 2.36594C9.0192 2.33428 9.08458 2.21757 9.05294 2.10527C9.02131 1.99297 8.9046 1.92757 8.79227 1.95923C8.74379 1.9729 8.69643 1.98753 8.65039 2.00268V1.32324C8.32612 1.57634 8.13818 1.76421 8.13818 1.76421V3.18699H12.2358C12.7109 3.18699 13.0702 2.95566 13.3008 2.61789H8.93495Z" fill="#FFC644"/>
<path d="M5.34959 1.32324V2.00268C5.30357 1.98753 5.25618 1.9729 5.2077 1.95923C5.09548 1.92759 4.9787 1.99295 4.94703 2.10527C4.9154 2.21757 4.98075 2.33428 5.09308 2.36594C5.17505 2.38905 5.25427 2.41549 5.3278 2.4425C5.28497 2.54545 5.18347 2.61786 5.06502 2.61786H0.699154C0.929798 2.95564 1.2891 3.18697 1.76422 3.18697H5.86179V1.76421C5.86179 1.76421 5.67386 1.57634 5.34959 1.32324Z" fill="#FFC644"/>
<path d="M8.13821 3.18687H5.86178V1.74854C5.86178 1.53711 6.03317 1.36572 6.2446 1.36572H7.7554C7.96682 1.36572 8.13821 1.53711 8.13821 1.74854V3.18687Z" fill="#FFC644"/>
<path d="M5.86178 2.61816H8.13821V3.18727H5.86178V2.61816Z" fill="#FCDD2E"/>
</svg>
