<svg width="424" height="331" viewBox="0 0 424 331" fill="none" xmlns="http://www.w3.org/2000/svg"><path d="M422.727 4.958a9.612 9.612 0 0 0-2.54-2.902 9.534 9.534 0 0 0-3.47-1.663l-.01-.003-.015-.003c-.005-.001-.011-.004-.016-.003a8.65 8.65 0 0 0-.488-.107c-.008.001-.011-.002-.017-.002l-.013-.002a9.498 9.498 0 0 0-5.128.453L6.367 146.137a9.593 9.593 0 0 0-4.426 3.267 9.705 9.705 0 0 0-.71 10.56 9.618 9.618 0 0 0 3.95 3.836l82.565 43.043 28.749 130.017a9.61 9.61 0 0 0 1.515 3.565 9.694 9.694 0 0 0 1.223 1.447 9.542 9.542 0 0 0 6.657 2.707h.048a9.53 9.53 0 0 0 6.459-2.556l77.926-72.285 85.534 43.439a9.56 9.56 0 0 0 7.753.395 9.604 9.604 0 0 0 3.331-2.168 9.675 9.675 0 0 0 2.175-3.339L423.291 13.407a9.68 9.68 0 0 0-.564-8.449zM33.577 156.86L324.692 52.252 95.814 189.305 33.578 156.86zm97.868 61.967l-.003.007-.004.008-.008.015v.001l-.004.008a.008.008 0 0 1-.002.004l-.004.01-.002.003-.006.011-.001.002a9.65 9.65 0 0 0-.961 3.319l-7.14 56.574-16.3-73.721L283.502 99.383 134.286 215.447a9.603 9.603 0 0 0-2.841 3.38zm7.278 91.069l9.074-71.911 44.231 22.463-53.305 49.448zm156.352-18.742l-81.836-41.56a9.6 9.6 0 0 0-.417-.212l-54.929-27.895L392.9 38.692l-97.825 252.462z" fill="#fff"/></svg>