<svg width="14" height="14" viewBox="0 0 14 14" fill="none" xmlns="http://www.w3.org/2000/svg"><path d="M5.862 1.764S4.098 0 2.049 0C.854 0 .399.797.399 1.593c0 .797.483 1.594 1.365 1.594h4.098V1.764z" fill="#FBE77B"/><path d="M5.862 1.764S4.098 0 2.049 0C.854 0 .399.797.399 1.593c0 .797.483 1.594 1.365 1.594h4.098V1.764zM8.138 1.764S9.902 0 11.951 0c1.195 0 1.65.797 1.65 1.593 0 .797-.483 1.594-1.365 1.594H8.138V1.764z" fill="#FFC644"/><path d="M13.453 5.463H.547A.547.547 0 0 1 0 4.917V3.734c0-.302.245-.547.547-.547h12.906c.302 0 .547.245.547.547v1.183a.547.547 0 0 1-.547.546z" fill="#FF6D4C"/><path d="M5.293 3.187h3.414v2.276H5.293V3.187z" fill="#FFC644"/><path d="M12.713 14H1.287a.547.547 0 0 1-.547-.547v-7.99h12.52v7.99a.547.547 0 0 1-.547.547z" fill="#FF6D4C"/><path d="M.74 5.463h12.52v.683H.74v-.683z" fill="#FC3F3F"/><path d="M5.862 5.463h2.276V14H5.862V5.463z" fill="#FFC644"/><path d="M5.862 5.463h2.276v.683H5.862v-.683z" fill="#FCDD2E"/><path d="M8.935 2.618a.285.285 0 0 1-.263-.176c.074-.027.153-.053.235-.076a.211.211 0 0 0-.115-.407 3.446 3.446 0 0 0-.142.044v-.68c-.324.253-.512.441-.512.441v1.423h4.098c.475 0 .834-.231 1.065-.57H8.935zM5.35 1.323v.68a3.437 3.437 0 0 0-.142-.044.211.211 0 0 0-.115.407c.082.023.161.05.235.076a.285.285 0 0 1-.263.176H.699c.23.338.59.569 1.065.569h4.098V1.764s-.188-.188-.512-.44zM8.138 3.187H5.862V1.749c0-.212.171-.383.383-.383h1.51c.212 0 .383.171.383.383v1.438z" fill="#FFC644"/><path d="M5.862 2.618h2.276v.57H5.862v-.57z" fill="#FCDD2E"/></svg>