<svg width="43" height="39" viewBox="0 0 43 39" fill="none" xmlns="http://www.w3.org/2000/svg"><path d="M24.905 30.97v-3.85h6.683a6.641 6.641 0 0 0 3.157-.8 6.702 6.702 0 0 0 2.408-2.208 6.77 6.77 0 0 0 .595-6.336 6.73 6.73 0 0 0-1.954-2.624 6.633 6.633 0 0 0-6.203-1.195 6.674 6.674 0 0 0-2.777 1.713v-.096c0-3.062-1.206-5.999-3.355-8.164a11.411 11.411 0 0 0-8.1-3.382A11.411 11.411 0 0 0 7.257 7.41a11.592 11.592 0 0 0-3.356 8.164v.014H.083v-.014A15.47 15.47 0 0 1 3.6 5.736 15.252 15.252 0 0 1 12.541.43a15.172 15.172 0 0 1 10.241 1.676 15.36 15.36 0 0 1 6.816 7.885 10.422 10.422 0 0 1 4.34.079c1.426.33 2.767.958 3.938 1.842a10.557 10.557 0 0 1 2.862 3.29 10.643 10.643 0 0 1 .809 8.522 10.604 10.604 0 0 1-2.192 3.777 10.505 10.505 0 0 1-3.52 2.56 10.432 10.432 0 0 1-4.247.907h-6.683zM9.63 34.817h19.094v3.849H9.63v-3.85zm0-15.395h15.275v3.849H9.63v-3.85zM1.993 27.12h19.093v3.85H1.993v-3.85z" fill="url(#a)"/><defs><linearGradient id="a" x2="30" y2="39" gradientUnits="userSpaceOnUse"><stop stop-color="#FECA52"/><stop offset=".516" stop-color="#FFCE5F"/><stop offset="1" stop-color="#FF644E"/></linearGradient></defs></svg>