<svg width="38" height="42" viewBox="0 0 38 42" fill="none" xmlns="http://www.w3.org/2000/svg"><path d="M23.222 14.7V4.2h-19v33.6h12.785a10.516 10.516 0 0 0 2.491 2.279L22.433 42H2.096c-.555 0-1.088-.22-1.481-.61A2.08 2.08 0 0 1 0 39.917V2.083C0 .955.948 0 2.115 0h23.212L38 12.6v2.1H23.222zM19 18.9h19v12.493a6.191 6.191 0 0 1-2.82 5.176l-6.68 4.377-6.68-4.377a6.214 6.214 0 0 1-2.066-2.233A6.175 6.175 0 0 1 19 31.395V18.9zm4.222 12.493c0 .663.342 1.29.92 1.67l4.358 2.855 4.357-2.856a2.008 2.008 0 0 0 .92-1.67V23.1H23.223v8.293z" fill="url(#a)"/><defs><linearGradient id="a" x1="-.075" y1="-.182" x2="33.689" y2="36.222" gradientUnits="userSpaceOnUse"><stop stop-color="#FECA52"/><stop offset=".516" stop-color="#FFCE5F"/><stop offset="1" stop-color="#FF644E"/></linearGradient></defs></svg>