<svg width="47" height="46" viewBox="0 0 47 46" fill="none" xmlns="http://www.w3.org/2000/svg"><path d="M23.5 3.833a19.166 19.166 0 1 0 0 38.333 19.166 19.166 0 0 0 0-38.333zm0 3.834c1.155.007 2.305.142 3.43.402a5.003 5.003 0 0 1-1.494 1.917c-.422.326-.882.594-1.342.881a8.74 8.74 0 0 0-3.546 3.201 12.44 12.44 0 0 0-1.188 6.325c0 2.607 0 4.14-1.82 5.501-2.627 2.051-6.632.901-9.124-.134A15.334 15.334 0 0 1 23.5 7.667zM10.083 30.283c1.253.326 2.54.5 3.834.518a9.583 9.583 0 0 0 6.018-1.917c3.277-2.568 3.277-5.865 3.277-8.51a9.124 9.124 0 0 1 .71-4.485 5.48 5.48 0 0 1 2.146-1.744c.61-.356 1.198-.746 1.764-1.17a8.72 8.72 0 0 0 2.683-3.583 15.333 15.333 0 0 1 6.402 6.171c-2.741.384-6.632 1.284-7.399 4.85A13.41 13.41 0 0 0 29.25 23a5.616 5.616 0 0 1-.556 2.817l-.191.326c-1.246 2.07-2.645 4.428-.748 7.667.23.402.48.786.728 1.17.51.588.854 1.303.997 2.07a15.12 15.12 0 0 1-5.98 1.283 15.333 15.333 0 0 1-13.417-8.05zm22.866 4.83a13.02 13.02 0 0 0-1.207-2.185c-.211-.306-.422-.613-.614-.939-.747-1.303-.479-1.916.729-3.833l.191-.326a9.143 9.143 0 0 0 1.035-4.657c-.002-.643.056-1.285.173-1.917.306-1.4 3.277-1.783 5.117-1.917a15.219 15.219 0 0 1-5.481 15.87l.057-.096z" fill="url(#a)"/><defs><linearGradient id="a" x1="4.257" y1="3.667" x2="34.692" y2="39.936" gradientUnits="userSpaceOnUse"><stop stop-color="#FECA52"/><stop offset=".516" stop-color="#FFCE5F"/><stop offset="1" stop-color="#FF644E"/></linearGradient></defs></svg>