<svg width="12" height="11" viewBox="0 0 12 11" fill="none" xmlns="http://www.w3.org/2000/svg"><path fill-rule="evenodd" clip-rule="evenodd" d="M7.18 4.28C6.536 2.786 4.81 1.219 1.156 0c-3.554 9.16 2.048 9.983 3.93 10.004-1.063-1.952-2.333-5.38-2.757-7.395.765 1.604 2.14 4.132 3.463 5.86-.645-1.884.048-3.257 1.388-4.188zm4.197-1.107c-7.098 1.654-4.987 5.33-4.163 6.4a12.666 12.666 0 0 1 2.647-3.487A11.28 11.28 0 0 0 8.29 9.921c1.675-.013 5.119-.662 3.087-6.748z" fill="url(#a)"/><defs><linearGradient id="a" x1="-.024" y1="-.043" x2="7.552" y2="10.787" gradientUnits="userSpaceOnUse"><stop stop-color="#FECA52"/><stop offset=".516" stop-color="#FFCE5F"/><stop offset="1" stop-color="#FF644E"/></linearGradient></defs></svg>