<svg width="166" height="33" viewBox="0 0 166 33" fill="none" xmlns="http://www.w3.org/2000/svg">
<g clip-path="url(#clip0)">
<path fill-rule="evenodd" clip-rule="evenodd" d="M60.9393 19.6556C61.4873 19.6442 62.0319 19.7419 62.541 19.9429C63.0501 20.144 63.5132 20.4443 63.9028 20.826C64.2861 21.2041 64.5902 21.6535 64.7977 22.1483C65.0052 22.6431 65.112 23.1736 65.112 23.7094C65.112 24.2452 65.0052 24.7757 64.7977 25.2705C64.5902 25.7654 64.2861 26.2147 63.9028 26.5928C63.5117 26.9717 63.0481 27.2691 62.5391 27.4677C62.0301 27.6663 61.4862 27.7619 60.9393 27.749H55.8817V14.4153H63.9603V16.0945H57.6706V19.652L60.9393 19.6556ZM60.9393 26.0948C61.2577 26.0977 61.5735 26.0374 61.8679 25.9175C62.1624 25.7976 62.4297 25.6206 62.654 25.3968C62.8783 25.173 63.0551 24.907 63.174 24.6144C63.2928 24.3219 63.3513 24.0087 63.346 23.6934C63.3518 23.3772 63.2909 23.0632 63.1672 22.7717C63.0435 22.4801 62.8597 22.2173 62.6276 22C62.4059 21.7769 62.1405 21.6009 61.8477 21.4829C61.555 21.3648 61.241 21.3072 60.925 21.3134H57.6562V26.0948H60.9393ZM73.0805 18.2254H74.8765L70.9432 28.3432C70.6131 29.3116 70.0128 30.1676 69.2119 30.8121C68.4914 31.3709 67.5841 31.639 66.6723 31.5628V30.0223C67.8553 30.1125 68.7209 29.4768 69.2693 28.1155L69.4238 27.7597L65.2498 18.2254H67.0207L70.311 25.6963L73.0805 18.2254ZM84.6218 27.749H82.6605L79.9665 24.1488L77.2545 27.749H75.2932L78.9859 22.8538L75.5051 18.229H77.4844L79.9665 21.5447L82.4486 18.229H84.4135L80.9507 22.8538L84.6218 27.749ZM92.492 18.2219V19.8228H87.8547V27.749H86.1808V18.2254L92.492 18.2219ZM101.533 18.2219H103.207V27.749H101.533V26.1126C101.149 26.7166 100.611 27.2091 99.9721 27.5403C99.3337 27.8715 98.6181 28.0294 97.8981 27.9981C97.2529 28.0067 96.613 27.8814 96.0197 27.6302C95.4264 27.3789 94.8928 27.0074 94.4533 26.5395C93.5374 25.577 93.0273 24.3044 93.0273 22.9819C93.0273 21.6594 93.5374 20.3868 94.4533 19.4243C94.8929 18.9569 95.4266 18.5859 96.02 18.3353C96.6133 18.0846 97.2531 17.96 97.8981 17.9693C98.6181 17.938 99.3337 18.0959 99.9721 18.4271C100.611 18.7582 101.149 19.2508 101.533 19.8548V18.2254V18.2219ZM98.11 26.4043C98.5634 26.4158 99.0144 26.3345 99.4347 26.1656C99.855 25.9967 100.236 25.7436 100.553 25.4224C101.182 24.767 101.533 23.8971 101.533 22.9926C101.533 22.0881 101.182 21.2181 100.553 20.5628C99.9009 19.9353 99.0279 19.5843 98.119 19.5843C97.2101 19.5843 96.3371 19.9353 95.6854 20.5628C95.0559 21.2181 94.7049 22.0881 94.7049 22.9926C94.7049 23.8971 95.0559 24.767 95.6854 25.4224C95.9996 25.7425 96.3771 25.9949 96.7943 26.1638C97.2115 26.3328 97.6594 26.4146 98.11 26.4043ZM113.768 18.2219V27.749H112.094V19.8263H108.304V23.7148C108.304 25.2777 107.987 26.3663 107.352 26.9806C106.717 27.5961 105.822 27.8558 104.669 27.7526V26.1908C104.931 26.2529 105.204 26.2462 105.463 26.1713C105.721 26.0964 105.955 25.956 106.142 25.7639C106.469 25.3868 106.63 24.6967 106.63 23.6756V18.2254L113.768 18.2219ZM123.466 18.2219V19.8228H120.198V27.749H118.538V19.8263H115.248V18.2254L123.466 18.2219ZM125.722 23.7539C125.849 24.5386 126.271 25.2465 126.904 25.7355C127.568 26.2212 128.378 26.4718 129.203 26.447C130.474 26.447 131.398 25.9809 131.976 25.056L133.413 25.8564C132.474 27.2794 131.064 27.991 129.181 27.991C128.495 28.0182 127.811 27.906 127.17 27.6612C126.53 27.4165 125.946 27.0444 125.456 26.5679C124.982 26.0978 124.61 25.5365 124.363 24.9186C124.116 24.3006 123.999 23.6391 124.02 22.9748C124 22.315 124.115 21.6582 124.356 21.0429C124.597 20.4276 124.96 19.8664 125.424 19.3923C125.898 18.9188 126.465 18.5479 127.091 18.3029C127.717 18.058 128.387 17.9443 129.059 17.9693C129.709 17.9487 130.356 18.0704 130.953 18.3256C131.551 18.5807 132.084 18.9632 132.515 19.4457C133.402 20.4191 133.881 21.6919 133.851 23.0033C133.851 23.2522 133.832 23.5007 133.794 23.7468L125.722 23.7539ZM129.048 19.5417C128.244 19.5015 127.454 19.7641 126.837 20.2768C126.22 20.7895 125.822 21.5144 125.722 22.306H132.148C132.062 21.5101 131.677 20.7752 131.071 20.2461C130.504 19.7772 129.787 19.5248 129.048 19.5346V19.5417ZM141.075 17.98C141.719 17.9707 142.358 18.0954 142.951 18.346C143.544 18.5967 144.077 18.9677 144.516 19.435C145.434 20.3962 145.946 21.6693 145.946 22.9926C145.946 24.3159 145.434 25.5889 144.516 26.5501C144.077 27.018 143.544 27.3895 142.951 27.6407C142.359 27.892 141.719 28.0173 141.075 28.0088C140.354 28.04 139.638 27.882 138.999 27.5509C138.36 27.2198 137.821 26.7273 137.436 26.1232V31.5628H135.766V18.2254H137.436V19.8655C137.821 19.2615 138.36 18.7689 138.999 18.4378C139.638 18.1067 140.354 17.9487 141.075 17.98ZM140.863 26.4007C141.313 26.4111 141.761 26.3292 142.178 26.1603C142.596 25.9913 142.973 25.7389 143.287 25.4188C143.917 24.7635 144.268 23.8935 144.268 22.989C144.268 22.0845 143.917 21.2146 143.287 20.5592C142.636 19.9318 141.763 19.5808 140.854 19.5808C139.945 19.5808 139.072 19.9318 138.42 20.5592C137.788 21.2133 137.436 22.0837 137.436 22.989C137.436 23.8943 137.788 24.7647 138.42 25.4188C138.737 25.7403 139.118 25.9934 139.538 26.1623C139.958 26.3313 140.409 26.4125 140.863 26.4007ZM154.926 18.2183H156.255V27.749H154.599V21.0644L149.283 27.749H147.936V18.2254H149.588V24.903L154.918 18.2148L154.926 18.2183ZM166.007 18.2183V27.749H164.351V24.3231H162.947L160.245 27.749H158.209L161.014 24.2235C160.33 24.0639 159.716 23.6895 159.265 23.1562C158.822 22.6335 158.584 21.9707 158.593 21.2885C158.583 20.8778 158.661 20.4697 158.824 20.0917C158.986 19.7137 159.228 19.3745 159.534 19.097C160.176 18.5073 161.026 18.1917 161.901 18.2183H166.007ZM161.966 22.8432H164.351V19.7694H161.966C161.524 19.757 161.093 19.9065 160.756 20.1892C160.591 20.3264 160.46 20.499 160.373 20.6938C160.286 20.8886 160.245 21.1005 160.253 21.3134C160.246 21.5236 160.288 21.7325 160.375 21.9243C160.462 22.116 160.592 22.2855 160.756 22.4198C161.092 22.6996 161.52 22.8477 161.959 22.836L161.966 22.8432Z" fill="#080200"/>
<path fill-rule="evenodd" clip-rule="evenodd" d="M2.79822 9.44177H49.6351V30.2393C49.6351 30.9743 49.3403 31.6792 48.8155 32.1989C48.2908 32.7187 47.579 33.0107 46.8369 33.0107H2.79822C2.05608 33.0107 1.34435 32.7187 0.819579 32.1989C0.294811 31.6792 0 30.9743 0 30.2393L0 12.2131C0 11.4781 0.294811 10.7732 0.819579 10.2535C1.34435 9.73375 2.05608 9.44177 2.79822 9.44177Z" fill="#FBBA00"/>
<path fill-rule="evenodd" clip-rule="evenodd" d="M55.4543 6.93014C56.3954 5.69211 56.848 3.55757 56.1152 0C46.8692 1.42303 48.8521 6.3716 49.7357 7.91915C51.0975 5.82798 52.7035 3.9031 54.5203 2.18435C53.2887 3.94671 52.2233 5.81758 51.3378 7.77329C52.5842 6.35026 54.0462 6.27555 55.4543 6.93014ZM58.3638 9.83312C54.312 14.3583 52.1388 11.8538 51.3306 10.4948C52.589 10.0803 53.914 9.89937 55.2387 9.96119C53.9014 9.5522 52.5023 9.37763 51.1043 9.44534C51.5964 8.2749 53.6223 4.8205 58.3638 9.83312Z" fill="#85BC22"/>
<path fill-rule="evenodd" clip-rule="evenodd" d="M28.2911 14.6145H29.5088V15.8205H28.2911V14.6145ZM10.8516 22.1707L13.8761 14.6145H15.8877L11.2395 25.4615C10.5571 27.0517 9.66263 27.7561 8.00669 27.8202C7.14782 27.8331 6.29437 27.6834 5.49225 27.379V25.8599C7.06198 26.3153 7.26673 26.3687 7.82709 26.358C8.5922 26.358 9.23877 25.9524 9.98233 24.2519L5.50302 14.6145H7.44633L10.8516 22.1707ZM24.0381 27.8202H22.3606V24.3088C21.6232 24.5012 20.8637 24.5981 20.1012 24.597C17.7484 24.597 16.3511 23.3945 16.3295 21.0181V18.1436H17.9998V21.0857C17.9998 22.5301 18.7182 23.1597 20.1012 23.1597C20.8637 23.1608 21.6232 23.064 22.3606 22.8716V18.1436H24.0381V27.8202ZM30.7193 27.8202C27.587 27.8202 26.0712 25.7852 26.0712 22.9499C26.0712 20.4596 27.6912 18.1507 30.5038 18.1507C34.0096 18.1507 34.6742 20.6872 34.6742 23.4444H27.6158C27.614 23.8506 27.6953 24.2529 27.8547 24.6272C28.0141 25.0015 28.2484 25.3399 28.5434 25.6221C28.8384 25.9043 29.1881 26.1245 29.5713 26.2693C29.9545 26.4141 30.3633 26.4806 30.7732 26.4647C31.2888 26.4864 31.8024 26.3886 32.2731 26.1793C32.7439 25.9699 33.1589 25.6547 33.4852 25.2587L34.5628 26.0165C33.7007 27.2189 32.4195 27.8202 30.7193 27.8202ZM30.5038 19.4563C28.8694 19.4563 27.86 20.7264 27.6732 22.1387H33.1296C33.1296 20.6908 32.1418 19.4563 30.5038 19.4563ZM44.1285 19.4883H40.8525V27.8202H39.1822V19.4883H35.9493V18.1436H44.1105V19.4812L44.1285 19.4883ZM31.2509 14.6251H32.4686V15.8312H31.2509V14.6251Z" fill="white"/>
</g>
<defs>
<clipPath id="clip0">
<rect width="166" height="33" fill="white"/>
</clipPath>
</defs>
</svg>
