<svg width="463" height="93" viewBox="0 0 463 93" fill="none" xmlns="http://www.w3.org/2000/svg"><g clip-path="url(#a)" fill-rule="evenodd" clip-rule="evenodd"><path d="M169.65 55.25a11.393 11.393 0 0 1 8.25 3.29 11.429 11.429 0 0 1 3.366 8.105 11.434 11.434 0 0 1-3.366 8.105 11.41 11.41 0 0 1-8.25 3.25h-14.08V40.52h22.49v4.72h-17.51v10l9.1.01zm0 18.1a6.643 6.643 0 0 0 6.7-6.75 6.381 6.381 0 0 0-2-4.76 6.468 6.468 0 0 0-4.74-1.93h-9.1v13.44h9.14zm33.8-22.12h5L197.5 79.67a15.21 15.21 0 0 1-4.82 6.94 10.09 10.09 0 0 1-7.07 2.11v-4.33c3.293.253 5.703-1.533 7.23-5.36l.43-1-11.62-26.8h4.93l9.16 21 7.71-21zM235.58 78h-5.46l-7.5-10.12L215.07 78h-5.46l10.28-13.76-9.69-13h5.51l6.91 9.32 6.91-9.32H235l-9.64 13L235.58 78zm21.91-26.78v4.5h-12.91V78h-4.66V51.23l17.57-.01zm25.17 0h4.66V78h-4.66v-4.6a11.37 11.37 0 0 1-10.12 5.3 12.86 12.86 0 0 1-9.59-4.1 14.579 14.579 0 0 1 0-20 12.85 12.85 0 0 1 9.59-4.09 11.368 11.368 0 0 1 10.12 5.3v-4.59zm-9.53 23a9.181 9.181 0 0 0 6.8-2.76 9.912 9.912 0 0 0 0-13.66 9.72 9.72 0 0 0-13.55 0 9.91 9.91 0 0 0 0 13.66 9.126 9.126 0 0 0 6.75 2.76zm43.59-23V78h-4.66V55.73h-10.55v10.93c0 4.393-.883 7.453-2.65 9.18-1.77 1.73-4.26 2.46-7.47 2.17v-4.39a4.301 4.301 0 0 0 4.1-1.2c.91-1.06 1.36-3 1.36-5.87V51.23l19.87-.01zm27 0v4.5h-9.1V78H330V55.73h-9.16v-4.5l22.88-.01zM350 66.77a8.842 8.842 0 0 0 3.29 5.57 10.251 10.251 0 0 0 6.4 2c3.54 0 6.11-1.31 7.72-3.91l4 2.25c-2.613 4-6.54 6-11.78 6a14.003 14.003 0 0 1-10.37-4 13.687 13.687 0 0 1-4-10.1 13.897 13.897 0 0 1 3.91-10.07 13.529 13.529 0 0 1 10.12-4 12.32 12.32 0 0 1 9.62 4.15 14.441 14.441 0 0 1 3.72 10c0 .7-.054 1.398-.16 2.09l-22.47.02zm9.26-11.84A8.88 8.88 0 0 0 350 62.7h17.89a8.998 8.998 0 0 0-3-5.79 8.6 8.6 0 0 0-5.63-2v.02zm33.48-4.39a12.831 12.831 0 0 1 9.58 4.09 14.547 14.547 0 0 1 0 20 12.844 12.844 0 0 1-9.58 4.1 11.39 11.39 0 0 1-10.13-5.3v15.29h-4.65V51.23h4.65v4.61a11.392 11.392 0 0 1 10.13-5.3zm-.59 23.67a9.12 9.12 0 0 0 6.75-2.76 9.912 9.912 0 0 0 0-13.66 9.72 9.72 0 0 0-13.55 0 9.88 9.88 0 0 0 0 13.66 9.168 9.168 0 0 0 6.8 2.76zm39.15-23h3.7V78h-4.61V59.21L415.59 78h-3.75V51.23h4.6V70l14.84-18.8.02.01zm30.85 0V78h-4.61v-9.63h-3.91L446.11 78h-5.67l7.81-9.91a9.07 9.07 0 0 1-4.87-3 8.003 8.003 0 0 1-1.87-5.25 8.076 8.076 0 0 1 2.62-6.16 9.27 9.27 0 0 1 6.59-2.47h11.43zm-11.25 13h6.64v-8.64h-6.64a5.001 5.001 0 0 0-3.37 1.18 3.947 3.947 0 0 0-1.4 3.16 3.874 3.874 0 0 0 1.4 3.11 5 5 0 0 0 3.35 1.17l.02.02z" fill="#fff"/><path d="M7.79 26.54h130.39V85a7.79 7.79 0 0 1-7.79 7.79H7.79A7.79 7.79 0 0 1 0 85V34.33a7.79 7.79 0 0 1 7.79-7.79z" fill="#FBBA00"/><path d="M154.38 19.48C157 16 158.26 10 156.22 0 130.48 4 136 17.91 138.46 22.26a88.993 88.993 0 0 1 13.32-16.12 98.191 98.191 0 0 0-8.86 15.71c3.47-4 7.54-4.21 11.46-2.37zm8.1 8.16c-11.28 12.72-17.33 5.68-19.58 1.86a29.997 29.997 0 0 1 10.88-1.5 33.47 33.47 0 0 0-11.51-1.45c1.37-3.29 7.01-13 20.21 1.09z" fill="#85BC22"/><path d="M78.76 41.08h3.39v3.39h-3.39v-3.39zM30.21 62.32l8.42-21.24h5.6L31.29 71.57c-1.9 4.47-4.39 6.45-9 6.63a18.77 18.77 0 0 1-7-1.24v-4.27c4.37 1.28 4.94 1.43 6.5 1.4 2.13 0 3.93-1.14 6-5.92L15.32 41.08h5.41l9.48 21.24zM66.92 78.2h-4.67v-9.87a24.55 24.55 0 0 1-6.29.81c-6.55 0-10.44-3.38-10.5-10.06V51h4.65v8.27c0 4.06 2 5.83 5.85 5.83a24.55 24.55 0 0 0 6.29-.81V51h4.67v27.2zm18.6 0c-8.72 0-12.94-5.72-12.94-13.69 0-7 4.51-13.49 12.34-13.49 9.76 0 11.61 7.13 11.61 14.88H76.88a8.461 8.461 0 0 0 8.79 8.49A9.24 9.24 0 0 0 93.22 71l3 2.13c-2.4 3.38-5.967 5.07-10.7 5.07zm-.6-23.51c-4.55 0-7.36 3.57-7.88 7.54h15.19c0-4.07-2.75-7.54-7.31-7.54zm37.93.09h-9.12V78.2h-4.65V54.78h-9V51h22.72v3.76l.05.02zM87 41.11h3.39v3.39H87v-3.39z" fill="#fff"/></g><defs><clipPath id="a"><path fill="#fff" d="M0 0h462.13v92.76H0z"/></clipPath></defs></svg>