<svg width="49" height="38" viewBox="0 0 49 38" fill="none" xmlns="http://www.w3.org/2000/svg"><path d="M42.318.453H6.682A3.37 3.37 0 0 0 3.316 3.82v25.25a3.388 3.388 0 0 0 2.835 3.324l.607.484h34.961l1.13-.484a3.388 3.388 0 0 0 2.835-3.324V3.82A3.37 3.37 0 0 0 42.318.452z" fill="url(#a)"/><path d="M6.527 29.07V3.82A3.37 3.37 0 0 1 9.893.453h-3.21A3.37 3.37 0 0 0 3.315 3.82v25.25a3.388 3.388 0 0 0 2.835 3.324l.607.484h3.21l-.605-.484a3.388 3.388 0 0 1-2.836-3.324z" fill="#FF6C4D"/><path d="M42.094 6H7.105l-.605.638v21.758c0 .334.268.604.599.604H41.9c.33 0 .599-.27.599-.604V6.638L42.094 6z" fill="#FEFAC0"/><path d="M10.253 3H7.077c-.319 0-.577.302-.577.675V7h3.753l.247-.308V3.214L10.253 3z" fill="#FFC165"/><path d="M41.522 3.438H9.782v3.656h32.343v-3.04a.61.61 0 0 0-.603-.617z" fill="#FFCF86"/><path d="M47.938 32.394H1.062a.565.565 0 0 0-.562.567v1.952c0 1.449 1.174 2.634 2.608 2.634h42.784c1.434 0 2.608-1.185 2.608-2.634v-1.952a.565.565 0 0 0-.562-.567z" fill="url(#b)"/><path d="M6.34 34.913v-1.952c0-.313.252-.567.562-.567h-5.84a.565.565 0 0 0-.562.567v1.952c0 1.449 1.174 2.634 2.608 2.634h5.84c-1.434 0-2.608-1.185-2.608-2.634z" fill="#FF6C4D"/><path d="M17.499 32.394v1.31c0 .643.521 1.17 1.159 1.17h11.684c.638 0 1.16-.527 1.16-1.17v-1.31H17.498z" fill="#DDD"/><path d="M30.4 15.807l-.286.12v4.605l.285.094 4.04 1.894v-8.606l-4.04 1.893z" fill="#FFC658"/><path d="M30.114 17.652v2.88l.285.094 4.04 1.894v-2.88l-4.04-1.894-.285-.094z" fill="#FF6C4D"/><path d="M38.228 12.894a1.61 1.61 0 1 0 0-3.219 1.61 1.61 0 0 0 0 3.22z" fill="#FFD260"/><path d="M38.228 11.285c0-.596.324-1.114.805-1.393a1.61 1.61 0 1 0 0 2.785 1.608 1.608 0 0 1-.805-1.392z" fill="#FF6C4D"/><path d="M34.44 23.727a.724.724 0 0 1-.725-.724V13.43a.724.724 0 1 1 1.449 0v9.572c0 .4-.324.724-.724.724zM28.514 24.688H16.446a1.886 1.886 0 0 1-1.886-1.886v-9.17c0-1.042.845-1.886 1.886-1.886h12.068c1.041 0 1.885.844 1.885 1.885v9.171a1.886 1.886 0 0 1-1.885 1.886z" fill="#FFC658"/><path d="M17.876 22.745v-9.057c0-1.073.87-1.942 1.943-1.942h-3.316c-1.073 0-1.943.87-1.943 1.942v9.057c0 1.073.87 1.943 1.943 1.943h3.316a1.942 1.942 0 0 1-1.943-1.943z" fill="#FFD260"/><path d="M24.733 17.59l-3.108-2.12a.76.76 0 0 0-1.187.627v4.24a.76.76 0 0 0 1.187.627l3.108-2.12a.76.76 0 0 0 0-1.255z" fill="#E4F6FF"/><path d="M22.48 20.336v-4.239l.003-.042-.858-.585a.76.76 0 0 0-1.187.627v4.24a.76.76 0 0 0 1.187.627l.858-.585c0-.015-.003-.028-.003-.043z" fill="#D3EFFB"/><defs><linearGradient id="a" x1="3.232" y1=".313" x2="27.003" y2="37.328" gradientUnits="userSpaceOnUse"><stop stop-color="#FECA52"/><stop offset=".516" stop-color="#FFCE5F"/><stop offset="1" stop-color="#FF644E"/></linearGradient><linearGradient id="b" x1=".405" y1="32.371" x2="1.147" y2="40.613" gradientUnits="userSpaceOnUse"><stop stop-color="#FECA52"/><stop offset=".516" stop-color="#FFCE5F"/><stop offset="1" stop-color="#FF644E"/></linearGradient></defs></svg>