<svg width="267" height="93" viewBox="0 0 267 93" fill="none" xmlns="http://www.w3.org/2000/svg"><g clip-path="url(#a)" fill-rule="evenodd" clip-rule="evenodd"><path d="M169.49 39.83a18.62 18.62 0 0 1 13.93 5.59 19.057 19.057 0 0 1 5.46 13.85 19.087 19.087 0 0 1-5.46 13.82 18.608 18.608 0 0 1-13.93 5.62 18.798 18.798 0 0 1-9.49-2.49 17.154 17.154 0 0 1-6.64-6.67l4.34-2.46a11.742 11.742 0 0 0 4.76 4.9 14.15 14.15 0 0 0 21.37-10.42h-19.32v-4.66h19.28a13.791 13.791 0 0 0-14.3-12.26 13.802 13.802 0 0 0-7 1.84 12.15 12.15 0 0 0-4.79 5l-4.34-2.52a17.35 17.35 0 0 1 6.64-6.68 18.93 18.93 0 0 1 9.48-2.46h.01zm51.26 33.47h4v11.89h-5V78H195v7.18h-5V73.3h3.27c2.32-2.887 3.48-7.28 3.48-13.18v-19.6h23.94V73.3h.06zm-21.8 0h16.82V45.18h-14v15c0 5.68-.947 10.037-2.84 13.07l.02.05zm62.15-.3a19.41 19.41 0 0 1-33.18-13.76 19.42 19.42 0 1 1 38.83 0A18.756 18.756 0 0 1 261.1 73zM237 69.63a14.75 14.75 0 0 0 20.62 0 14.17 14.17 0 0 0 4.15-10.36 14.24 14.24 0 0 0-4.15-10.42 14.75 14.75 0 0 0-20.62 0 14.236 14.236 0 0 0-4.15 10.42A14.17 14.17 0 0 0 237 69.63z" fill="#fff"/><path d="M7.79 26.54h130.39V85a7.79 7.79 0 0 1-7.79 7.79H7.79A7.79 7.79 0 0 1 0 85V34.33a7.79 7.79 0 0 1 7.79-7.79z" fill="#009EE3"/><path d="M154.38 19.48C157 16 158.26 10 156.22 0 130.48 4 136 17.91 138.46 22.26a88.993 88.993 0 0 1 13.32-16.12 98.191 98.191 0 0 0-8.86 15.71c3.47-4 7.54-4.21 11.46-2.37zm8.1 8.16c-11.28 12.72-17.33 5.68-19.58 1.86a29.997 29.997 0 0 1 10.88-1.5 33.47 33.47 0 0 0-11.51-1.45c1.37-3.29 7.01-13 20.21 1.09z" fill="#85BC22"/><path d="M78.76 41.08h3.39v3.39h-3.39v-3.39zM30.21 62.32l8.42-21.24h5.6L31.29 71.57c-1.9 4.47-4.39 6.45-9 6.63a18.772 18.772 0 0 1-7-1.24v-4.27c4.37 1.28 4.94 1.43 6.5 1.4 2.13 0 3.93-1.14 6-5.92L15.32 41.08h5.41l9.48 21.24zM66.92 78.2h-4.67v-9.87c-2.053.54-4.167.813-6.29.81-6.55 0-10.44-3.38-10.5-10.06V51h4.65v8.27c0 4.06 2 5.83 5.85 5.83 2.123.003 4.237-.27 6.29-.81V51h4.67v27.2zm18.6 0c-8.72 0-12.94-5.72-12.94-13.69 0-7 4.51-13.49 12.34-13.49 9.76 0 11.61 7.13 11.61 14.88H76.88a8.46 8.46 0 0 0 8.79 8.49A9.24 9.24 0 0 0 93.22 71l3 2.13c-2.4 3.38-5.967 5.07-10.7 5.07zm-.6-23.51c-4.55 0-7.36 3.57-7.88 7.54h15.19c0-4.07-2.75-7.54-7.31-7.54zm37.93.09h-9.12V78.2h-4.65V54.78h-9V51h22.72v3.76l.05.02zM87 41.11h3.39v3.39H87v-3.39z" fill="#fff"/></g><defs><clipPath id="a"><path fill="#fff" d="M0 0h266.75v92.76H0z"/></clipPath></defs></svg>