<svg width="48" height="40" viewBox="0 0 48 40" fill="none" xmlns="http://www.w3.org/2000/svg"><path d="M.598 35.182V.936C.598.42 1.017 0 1.534 0h44.664c.517 0 .936.42.936.936v34.246c0 .517-.419.937-.936.937H1.534a.936.936 0 0 1-.936-.937z" fill="url(#a)"/><path d="M3.47 33.253h40.792V2.866H3.47v30.387z" fill="#FFF9E9"/><path d="M40.516 2.866h3.745v30.387h-3.745V2.866z" fill="#FFF4D6"/><path d="M9.002 9.447h24.21a.702.702 0 1 0 0-1.405H9.002a.702.702 0 1 0 0 1.405zM38.73 12.313H9.001a.702.702 0 0 0 0 1.405H38.73a.702.702 0 1 0 0-1.405zM25.892 16.585H9.002a.702.702 0 1 0 0 1.404h16.89a.702.702 0 1 0 0-1.404z" fill="#FAE19E"/><path d="M20.948 27.068a3278.942 3278.942 0 0 1-4.724.01c-.293 0-.61.051-.857-.138-.277-.212-.373-.51-.436-.84-.137-.713-1.166-.622-1.354 0-.084.276-.505 1.065-.873 1-.195-.034-.28-.335-.353-.49a5.99 5.99 0 0 1-.33-.947c-.37-1.361-.443-2.782-.674-4.169-.134-.804-1.36-.576-1.38.187-.063 2.432-.46 4.83-1.326 7.11-.321.845 1.036 1.211 1.354.373.334-.879.6-1.779.805-2.692.11.333.242.66.402.977.41.81 1.247 1.29 2.142.93.32-.13.61-.354.859-.628.035.04.07.08.107.117.68.688 1.577.614 2.468.613l4.17-.009c.904-.002.906-1.407 0-1.404z" fill="#FFC644"/><path d="M36.496 40l-2.013-.936L32.47 40V27.921h4.026v12.08z" fill="#FFF068"/><path d="M34.483 30.256c-.71 0-1.176-1.21-1.793-1.466-.64-.266-1.82.25-2.303-.234-.483-.483.032-1.666-.234-2.307-.256-.62-1.463-1.085-1.463-1.797s1.207-1.178 1.463-1.796c.266-.642-.25-1.824.234-2.308.482-.483 1.662.032 2.303-.234.617-.256 1.083-1.466 1.793-1.466s1.175 1.21 1.793 1.466c.64.266 1.82-.25 2.303.234.483.484-.032 1.666.234 2.308.256.619 1.463 1.085 1.463 1.796 0 .712-1.207 1.178-1.463 1.797-.266.641.249 1.824-.234 2.307-.482.483-1.663-.032-2.303.234-.617.257-1.083 1.466-1.793 1.466z" fill="#FECA52"/><path d="M38.813 22.656c-.266-.642.249-1.824-.234-2.308-.482-.483-1.663.032-2.303-.234-.618-.256-1.083-1.466-1.793-1.466s-1.176 1.21-1.793 1.466a.835.835 0 0 1-.08.028c.654.198 1.76-.258 2.224.206.482.484-.032 1.666.233 2.308.257.619 1.464 1.085 1.464 1.796 0 .712-1.207 1.178-1.464 1.797-.265.641.25 1.824-.233 2.307-.464.464-1.57.008-2.224.206a.835.835 0 0 1 .08.028c.617.257 1.082 1.466 1.793 1.466.71 0 1.175-1.21 1.793-1.466.64-.266 1.82.25 2.303-.234.483-.483-.032-1.666.234-2.307.256-.619 1.463-1.085 1.463-1.797s-1.207-1.178-1.463-1.796z" fill="url(#b)"/><path d="M34.483 26.493a2.04 2.04 0 1 0 0-4.081 2.04 2.04 0 0 0 0 4.081z" fill="#FFF068"/><defs><linearGradient id="a" x1=".505" y1="-.156" x2="27.138" y2="40.735" gradientUnits="userSpaceOnUse"><stop stop-color="#FECA52"/><stop offset=".516" stop-color="#FFCE5F"/><stop offset="1" stop-color="#FF644E"/></linearGradient><linearGradient id="b" x1="32.595" y1="18.598" x2="41.691" y2="25.756" gradientUnits="userSpaceOnUse"><stop stop-color="#FECA52"/><stop offset=".516" stop-color="#FFCE5F"/><stop offset="1" stop-color="#FF644E"/></linearGradient></defs></svg>