<svg width="732" height="93" viewBox="0 0 732 93" fill="none" xmlns="http://www.w3.org/2000/svg"><g clip-path="url(#a)" fill-rule="evenodd" clip-rule="evenodd"><path d="M182.78 40.52V78h-5V45.24h-17.23V78h-5V40.52h27.23zm22.33 10a12.86 12.86 0 0 1 9.59 4.09 14.58 14.58 0 0 1 0 20 12.867 12.867 0 0 1-9.59 4.1 11.36 11.36 0 0 1-10.11-5.3v15.31h-4.66V51.23H195v4.61a11.36 11.36 0 0 1 10.12-5.3l-.01-.02zm-.59 23.67a9.118 9.118 0 0 0 6.75-2.76 9.912 9.912 0 0 0 0-13.66 9.72 9.72 0 0 0-13.55 0 9.91 9.91 0 0 0 0 13.66 9.183 9.183 0 0 0 6.8 2.76zm42.31.43a14.32 14.32 0 0 1-20 0 14.28 14.28 0 0 1 0-20 14.122 14.122 0 0 1 21.75 2.139 14.115 14.115 0 0 1 2.37 7.861 13.526 13.526 0 0 1-4.12 10zm-10-.48a9.336 9.336 0 0 0 6.767-2.755 9.34 9.34 0 0 0 2.713-6.785 9.334 9.334 0 0 0-2.713-6.781 9.335 9.335 0 0 0-6.767-2.749 9.105 9.105 0 0 0-6.69 2.73 9.83 9.83 0 0 0 0 13.6 9.071 9.071 0 0 0 6.69 2.74zm37.49-9.91a6.211 6.211 0 0 1 4.13 6.21 7.18 7.18 0 0 1-2.22 5.44 8.87 8.87 0 0 1-6.37 2.12h-13.39V51.23h12.32a8.85 8.85 0 0 1 6.21 2 6.83 6.83 0 0 1 2.2 5.28 6.356 6.356 0 0 1-2.9 5.73l.02-.01zm-5.73-8.84H261v7h7.55c2.72 0 4.07-1.2 4.07-3.59 0-2.39-1.35-3.43-4.07-3.43l.04.02zm1 18.37a4.6 4.6 0 0 0 3.13-1 3.436 3.436 0 0 0 1.1-2.73 3.191 3.191 0 0 0-1.1-2.6 4.64 4.64 0 0 0-3.13-.94H261v7.23l8.59.04zm17.14-7a8.839 8.839 0 0 0 3.27 5.58 10.251 10.251 0 0 0 6.4 2c3.54 0 6.11-1.31 7.71-3.91l4 2.25c-2.613 4-6.54 6-11.78 6a14.001 14.001 0 0 1-10.37-4 13.687 13.687 0 0 1-4-10.1 13.896 13.896 0 0 1 3.91-10.07 13.529 13.529 0 0 1 10.12-4 12.32 12.32 0 0 1 9.62 4.15 14.441 14.441 0 0 1 3.72 10c0 .7-.054 1.398-.16 2.09l-22.44.01zM296 54.93a8.88 8.88 0 0 0-9.26 7.77h17.89a8.998 8.998 0 0 0-3-5.79 8.6 8.6 0 0 0-5.63-2v.02zm33.48-4.39a12.831 12.831 0 0 1 9.58 4.09 14.548 14.548 0 0 1 0 20 12.844 12.844 0 0 1-9.58 4.1 11.39 11.39 0 0 1-10.13-5.3v15.29h-4.65V51.23h4.65v4.61a11.393 11.393 0 0 1 10.13-5.3zm-.59 23.67a9.12 9.12 0 0 0 6.75-2.76 9.912 9.912 0 0 0 0-13.66 9.72 9.72 0 0 0-13.55 0 9.88 9.88 0 0 0 0 13.66 9.168 9.168 0 0 0 6.8 2.76zM371.24 78h-5.78l-12.21-12.68V78h-4.66V51.23h4.66v11.84l11.56-11.84h6l-12.8 13L371.24 78zm24.05-26.78H400V78h-4.66v-4.6a11.372 11.372 0 0 1-10.12 5.3 12.858 12.858 0 0 1-9.59-4.1 14.579 14.579 0 0 1 0-20 12.85 12.85 0 0 1 9.59-4.09 11.368 11.368 0 0 1 10.12 5.3v-4.58l-.05-.01zm-9.54 23a9.19 9.19 0 0 0 6.81-2.76 9.912 9.912 0 0 0 0-13.66 9.72 9.72 0 0 0-13.55 0 9.91 9.91 0 0 0 0 13.66 9.114 9.114 0 0 0 6.74 2.76zM443.06 78h-5.78l-12.21-12.68V78h-4.66V51.23h4.66v11.84l11.56-11.84h6l-12.8 13L443.06 78zm24.48-3.37a14.33 14.33 0 0 1-20 0 14.28 14.28 0 0 1 0-20 14.127 14.127 0 0 1 15.41-3.07 14.127 14.127 0 0 1 8.72 13.07 13.559 13.559 0 0 1-4.12 10h-.01zm-10-.48a9.341 9.341 0 0 0 9.46-9.53 9.334 9.334 0 0 0-2.713-6.781 9.335 9.335 0 0 0-6.767-2.749 9.105 9.105 0 0 0-6.69 2.73 9.808 9.808 0 0 0 0 13.6 9.071 9.071 0 0 0 6.69 2.74l.02-.01zm38.19-22.93h4.66V78h-4.66V66.82h-13.9V78h-4.65V51.23h4.65v11.14h13.88V51.23l.02-.01zm31.65 0v4.5h-9.11V78h-4.66V55.73h-9.15v-4.5l22.92-.01zm18.85-.69a12.864 12.864 0 0 1 9.59 4.09 14.58 14.58 0 0 1 0 20 12.867 12.867 0 0 1-9.59 4.1 11.362 11.362 0 0 1-10.12-5.3v15.3h-4.66V51.23h4.66v4.61a11.36 11.36 0 0 1 10.12-5.3v-.01zm-.59 23.67a9.12 9.12 0 0 0 6.75-2.76 9.912 9.912 0 0 0 0-13.66 9.72 9.72 0 0 0-13.55 0 9.91 9.91 0 0 0 0 13.66 9.183 9.183 0 0 0 6.8 2.76zm41.88-23h4.66V78h-4.68v-4.6a11.36 11.36 0 0 1-10.12 5.3 12.858 12.858 0 0 1-9.59-4.1 14.579 14.579 0 0 1 0-20 12.85 12.85 0 0 1 9.59-4.09 11.36 11.36 0 0 1 10.12 5.3v-4.58l.02-.03zm-9.53 23a9.181 9.181 0 0 0 6.8-2.76 9.912 9.912 0 0 0 0-13.66 9.72 9.72 0 0 0-13.55 0 9.91 9.91 0 0 0 0 13.66 9.116 9.116 0 0 0 6.76 2.77l-.01-.01zm38.83-23v4.5h-12.93V78h-4.66V51.23l17.59-.03zm6.26 15.54a8.85 8.85 0 0 0 3.3 5.57 10.23 10.23 0 0 0 6.4 2c3.53 0 6.1-1.31 7.71-3.91l4 2.25c-2.6 4-6.527 6-11.78 6a14.003 14.003 0 0 1-10.36-4 13.687 13.687 0 0 1-4-10.1 13.846 13.846 0 0 1 .934-5.432 13.843 13.843 0 0 1 2.976-4.638 13.502 13.502 0 0 1 10.12-4 12.304 12.304 0 0 1 9.61 4.15 14.441 14.441 0 0 1 3.72 10c0 .7-.054 1.398-.16 2.09l-22.47.02zm9.27-11.84a8.9 8.9 0 0 0-9.27 7.77H641a8.896 8.896 0 0 0-3-5.79 8.57 8.57 0 0 0-5.62-2l-.03.02zm37.22-3.7h4.66V78h-4.66V66.82h-13.89V78H651V51.23h4.66v11.14h13.87V51.23l.04-.03zm31.65 0v4.5h-9.1V78h-4.66V55.73h-9.16v-4.5l22.92-.03zm25.17 0H731V78h-4.66v-4.6a11.36 11.36 0 0 1-10.12 5.3 12.872 12.872 0 0 1-9.59-4.1 14.579 14.579 0 0 1 0-20 12.853 12.853 0 0 1 9.59-4.09 11.36 11.36 0 0 1 10.12 5.3v-4.58l.05-.03zm-9.53 23a9.181 9.181 0 0 0 6.8-2.76 9.912 9.912 0 0 0 0-13.66 9.72 9.72 0 0 0-13.55 0 9.91 9.91 0 0 0 0 13.66 9.123 9.123 0 0 0 6.73 2.77l.02-.01z" fill="#fff"/><path d="M7.79 26.54h130.39V85a7.79 7.79 0 0 1-7.79 7.79H7.79A7.79 7.79 0 0 1 0 85V34.33a7.79 7.79 0 0 1 7.79-7.79z" fill="#E31724"/><path d="M154.38 19.48C157 16 158.26 10 156.22 0 130.48 4 136 17.91 138.46 22.26a88.993 88.993 0 0 1 13.32-16.12 98.191 98.191 0 0 0-8.86 15.71c3.47-4 7.54-4.21 11.46-2.37zm8.1 8.16c-11.28 12.72-17.33 5.68-19.58 1.86a29.997 29.997 0 0 1 10.88-1.5 33.47 33.47 0 0 0-11.51-1.45c1.37-3.29 7.01-13 20.21 1.09z" fill="#85BC22"/><path d="M78.76 41.08h3.39v3.39h-3.39v-3.39zM30.21 62.32l8.42-21.24h5.6L31.29 71.57c-1.9 4.47-4.39 6.45-9 6.63a18.768 18.768 0 0 1-7-1.24v-4.27c4.37 1.28 4.94 1.43 6.5 1.4 2.13 0 3.93-1.14 6-5.92L15.32 41.08h5.41l9.48 21.24zM66.92 78.2h-4.67v-9.87a24.55 24.55 0 0 1-6.29.81c-6.55 0-10.44-3.38-10.5-10.06V51h4.65v8.27c0 4.06 2 5.83 5.85 5.83a24.55 24.55 0 0 0 6.29-.81V51h4.67v27.2zm18.6 0c-8.72 0-12.94-5.72-12.94-13.69 0-7 4.51-13.49 12.34-13.49 9.76 0 11.61 7.13 11.61 14.88H76.88a8.461 8.461 0 0 0 8.79 8.49A9.24 9.24 0 0 0 93.22 71l3 2.13c-2.4 3.38-5.967 5.07-10.7 5.07zm-.6-23.51c-4.55 0-7.36 3.57-7.88 7.54h15.19c0-4.07-2.75-7.54-7.31-7.54zm37.93.09h-9.12V78.2h-4.65V54.78h-9V51h22.72v3.76l.05.02zM87 41.11h3.39v3.39H87v-3.39z" fill="#fff"/></g><defs><clipPath id="a"><path fill="#fff" d="M0 0h731.03v92.76H0z"/></clipPath></defs></svg>