<svg width="24" height="22" viewBox="0 0 24 22" fill="none" xmlns="http://www.w3.org/2000/svg"><path d="M13.175.722l2.675 5.176c.194.377.57.639 1.007.7l5.994.843c.352.048.67.227.883.497.213.27.304.61.252.945a1.266 1.266 0 0 1-.386.73l-4.346 4.06a1.2 1.2 0 0 0-.385 1.117l1.07 5.715c.119.684-.354 1.334-1.07 1.472a1.447 1.447 0 0 1-.856-.132l-5.352-2.69a1.448 1.448 0 0 0-1.263 0l-5.352 2.69c-.66.338-1.483.107-1.841-.518a1.27 1.27 0 0 1-.14-.812l1.07-5.715a1.2 1.2 0 0 0-.385-1.116L.405 9.624a1.237 1.237 0 0 1-.399-.904c0-.34.144-.665.399-.903.205-.202.477-.33.77-.366L7.17 6.61a1.334 1.334 0 0 0 1.006-.7l2.58-5.187c.225-.443.701-.72 1.22-.711h.16c.451.054.842.322 1.039.71z" fill="#FFCF5E"/><path d="M12.008 19.002a1.497 1.497 0 0 0-.664.175L6.01 21.86c-.64.311-1.452.061-1.804-.533a1.231 1.231 0 0 1-.14-.802l1.07-5.705a1.248 1.248 0 0 0-.384-1.127L.394 9.634a1.233 1.233 0 0 1 0-1.807c.205-.195.472-.324.76-.365l6.016-.853a1.3 1.3 0 0 0 1.006-.7L10.789.662c.2-.427.869-.722 1.23-.652-.011.346-.011 18.759-.011 18.992z" fill="url(#a)"/><defs><linearGradient id="a" x1="-18" y1="11.5" x2="4.571" y2="-4.313" gradientUnits="userSpaceOnUse"><stop stop-color="#FECA52"/><stop offset=".516" stop-color="#FFCE5F"/><stop offset="1" stop-color="#FF644E"/></linearGradient></defs></svg>