<svg width="27" height="23" viewBox="0 0 27 23" fill="none" xmlns="http://www.w3.org/2000/svg"><path d="M10.188 13.031a4.781 4.781 0 1 0 0-9.562 4.781 4.781 0 0 0 0 9.562z" fill="url(#a)"/><path d="M19.471 18.006a14.42 14.42 0 0 0-18.569 0 .786.786 0 0 0-.277.599v2.2c0 1.078.714 1.789 1.594 1.789h15.937c.88 0 1.594-.71 1.594-1.592v-2.165c0-.463-.102-.683-.279-.831z" fill="url(#b)"/><path d="M16.563 8.25c0 .543-.07 1.071-.2 1.573.069.003.131.02.2.02a4.787 4.787 0 0 0 4.78-4.78A4.787 4.787 0 0 0 16.564.28a4.777 4.777 0 0 0-3.94 2.082c2.31.96 3.94 3.235 3.94 5.887z" fill="url(#c)"/><path d="M25.846 14.818A14.4 14.4 0 0 0 15.67 11.47a6.478 6.478 0 0 1-1.83 1.989 16.006 16.006 0 0 1 6.715 3.372c.516.437.789 1.101.789 1.777v.797h3.187c.88 0 1.594-.714 1.594-1.594v-2.39a.792.792 0 0 0-.279-.604z" fill="url(#d)"/><defs><linearGradient id="a" x1="5.387" y1="3.427" x2="12.979" y2="12.475" gradientUnits="userSpaceOnUse"><stop stop-color="#FECA52"/><stop offset=".516" stop-color="#FFCE5F"/><stop offset="1" stop-color="#FF644E"/></linearGradient><linearGradient id="b" x1=".587" y1="14.585" x2="4.596" y2="26.04" gradientUnits="userSpaceOnUse"><stop stop-color="#FECA52"/><stop offset=".516" stop-color="#FFCE5F"/><stop offset="1" stop-color="#FF644E"/></linearGradient><linearGradient id="c" x1="12.605" y1=".24" x2="20.288" y2="8.589" gradientUnits="userSpaceOnUse"><stop stop-color="#FECA52"/><stop offset=".516" stop-color="#FFCE5F"/><stop offset="1" stop-color="#FF644E"/></linearGradient><linearGradient id="d" x1="13.816" y1="11.408" x2="19.206" y2="21.317" gradientUnits="userSpaceOnUse"><stop stop-color="#FECA52"/><stop offset=".516" stop-color="#FFCE5F"/><stop offset="1" stop-color="#FF644E"/></linearGradient></defs></svg>