<svg width="166" height="33" viewBox="0 0 166 33" fill="none" xmlns="http://www.w3.org/2000/svg"><g clip-path="url(#a)" fill-rule="evenodd" clip-rule="evenodd"><path d="M60.94 19.656a4.128 4.128 0 0 1 2.963 1.17 4.036 4.036 0 0 1 0 5.767 4.133 4.133 0 0 1-2.963 1.156h-5.058V14.415h8.078v1.68h-6.29v3.557l3.27.004zm0 6.439a2.404 2.404 0 0 0 1.714-.698 2.36 2.36 0 0 0 .692-1.704A2.254 2.254 0 0 0 62.628 22a2.324 2.324 0 0 0-1.703-.687h-3.269v4.782h3.283zm12.14-7.87h1.796l-3.933 10.118a5.411 5.411 0 0 1-1.731 2.47 3.65 3.65 0 0 1-2.54.75v-1.54c1.183.09 2.049-.546 2.597-1.907l.155-.356-4.174-9.535h1.77l3.291 7.471 2.77-7.47zm11.542 9.524H82.66l-2.694-3.6-2.712 3.6h-1.96l3.692-4.895-3.48-4.625h1.978l2.483 3.316 2.482-3.316h1.965l-3.463 4.625 3.67 4.895zm7.87-9.527v1.6h-4.637v7.927H86.18v-9.524l6.311-.003zm9.041 0h1.674v9.527h-1.674v-1.636a4.065 4.065 0 0 1-1.56 1.427 4.117 4.117 0 0 1-2.075.458 4.66 4.66 0 0 1-1.878-.368 4.621 4.621 0 0 1-1.567-1.09 5.16 5.16 0 0 1-1.426-3.558 5.16 5.16 0 0 1 1.426-3.558 4.653 4.653 0 0 1 3.445-1.455 4.117 4.117 0 0 1 2.074.458 4.065 4.065 0 0 1 1.561 1.428V18.222zm-3.423 8.182a3.327 3.327 0 0 0 2.443-.982c.629-.655.98-1.525.98-2.43 0-.904-.351-1.774-.98-2.43a3.51 3.51 0 0 0-2.434-.978c-.909 0-1.782.351-2.434.979a3.507 3.507 0 0 0-.98 2.43c0 .904.35 1.774.98 2.43a3.304 3.304 0 0 0 2.425.982zm15.658-8.182v9.527h-1.674v-7.923h-3.79v3.889c0 1.563-.317 2.651-.952 3.266-.635.615-1.53.875-2.683.772V26.19a1.56 1.56 0 0 0 1.473-.427c.327-.377.488-1.067.488-2.088v-5.45l7.138-.004zm9.698 0v1.6h-3.268v7.927h-1.66v-7.923h-3.29v-1.6l8.218-.004zm2.256 5.532a3.138 3.138 0 0 0 1.182 1.981 3.707 3.707 0 0 0 2.299.712c1.271 0 2.195-.466 2.773-1.391l1.437.8c-.939 1.423-2.349 2.135-4.232 2.135a5.073 5.073 0 0 1-2.011-.33 5.042 5.042 0 0 1-1.714-1.093 4.868 4.868 0 0 1-1.093-1.65 4.826 4.826 0 0 1-.343-1.943 4.93 4.93 0 0 1 1.404-3.582 4.868 4.868 0 0 1 1.667-1.09 4.902 4.902 0 0 1 1.968-.334 4.461 4.461 0 0 1 3.456 1.477 5.109 5.109 0 0 1 1.336 3.557c0 .25-.019.498-.057.744l-8.072.007zm3.326-4.212a3.21 3.21 0 0 0-2.211.735 3.152 3.152 0 0 0-1.115 2.029h6.426a3.191 3.191 0 0 0-1.077-2.06 3.11 3.11 0 0 0-2.023-.711v.007zm12.027-1.562a4.648 4.648 0 0 1 1.876.366 4.61 4.61 0 0 1 1.565 1.089 5.151 5.151 0 0 1 1.43 3.558 5.15 5.15 0 0 1-1.43 3.557 4.648 4.648 0 0 1-3.441 1.459 4.125 4.125 0 0 1-2.076-.458 4.076 4.076 0 0 1-1.563-1.428v5.44h-1.67V18.225h1.67v1.64a4.077 4.077 0 0 1 1.563-1.427 4.124 4.124 0 0 1 2.076-.458zm-.212 8.42a3.302 3.302 0 0 0 2.424-.981c.63-.655.981-1.526.981-2.43 0-.905-.351-1.774-.981-2.43a3.506 3.506 0 0 0-2.433-.978 3.51 3.51 0 0 0-2.434.978 3.496 3.496 0 0 0 0 4.86 3.298 3.298 0 0 0 2.443.982zm14.063-8.182h1.329v9.531h-1.656v-6.685l-5.316 6.685h-1.347v-9.524h1.652v6.678l5.33-6.688.008.003zm11.081 0v9.531h-1.656v-3.426h-1.404l-2.702 3.426h-2.036l2.805-3.525a3.26 3.26 0 0 1-1.749-1.068 2.83 2.83 0 0 1-.672-1.867 2.868 2.868 0 0 1 .941-2.191 3.349 3.349 0 0 1 2.367-.88h4.106zm-4.041 4.625h2.385V19.77h-2.385a1.804 1.804 0 0 0-1.21.42 1.398 1.398 0 0 0-.503 1.124 1.369 1.369 0 0 0 .503 1.107c.336.28.764.428 1.203.416l.007.007z" fill="#080200"/><path d="M2.798 9.442h46.837v20.797c0 .735-.295 1.44-.82 1.96a2.812 2.812 0 0 1-1.978.812H2.798a2.812 2.812 0 0 1-1.978-.812 2.758 2.758 0 0 1-.82-1.96V12.213c0-.735.295-1.44.82-1.96a2.812 2.812 0 0 1 1.978-.811z" fill="#FBBA00"/><path d="M55.454 6.93c.941-1.238 1.394-3.372.661-6.93-9.246 1.423-7.263 6.372-6.38 7.92a31.734 31.734 0 0 1 4.785-5.736 34.855 34.855 0 0 0-3.182 5.59c1.246-1.424 2.708-1.498 4.116-.844zm2.91 2.903c-4.052 4.525-6.225 2.02-7.033.662a10.874 10.874 0 0 1 3.908-.534 12.131 12.131 0 0 0-4.135-.516c.492-1.17 2.518-4.625 7.26.388z" fill="#85BC22"/><path d="M28.291 14.614h1.218v1.206H28.29v-1.206zm-17.44 7.557l3.025-7.556h2.012l-4.649 10.847c-.682 1.59-1.576 2.294-3.232 2.358a6.8 6.8 0 0 1-2.515-.441v-1.52c1.57.456 1.775.51 2.335.499.765 0 1.412-.406 2.155-2.106l-4.479-9.637h1.943l3.406 7.556zm13.187 5.65h-1.677v-3.512a8.9 8.9 0 0 1-2.26.288c-2.353 0-3.75-1.203-3.771-3.579v-2.874H18v2.942c0 1.444.718 2.074 2.101 2.074a8.9 8.9 0 0 0 2.26-.288v-4.728h1.677v9.676zm6.681 0c-3.132 0-4.648-2.036-4.648-4.871 0-2.49 1.62-4.8 4.433-4.8 3.506 0 4.17 2.537 4.17 5.294h-7.058a2.984 2.984 0 0 0 .927 2.178 3.043 3.043 0 0 0 2.23.843 3.346 3.346 0 0 0 1.5-.286c.47-.21.886-.524 1.212-.92l1.078.758c-.862 1.202-2.144 1.803-3.844 1.803zm-.215-8.365c-1.635 0-2.644 1.27-2.83 2.683h5.456c0-1.448-.988-2.683-2.626-2.683zm13.625.032h-3.276v8.332h-1.67v-8.332h-3.234v-1.344h8.162v1.337l.018.007zM31.25 14.625h1.218v1.206H31.25v-1.206z" fill="#fff"/></g><defs><clipPath id="a"><path fill="#fff" d="M0 0h166v33H0z"/></clipPath></defs></svg>